<?xml version="1.0" encoding="UTF-8" standalone="no" ?>
<!DOCTYPE svg PUBLIC "-//W3C//DTD SVG 1.1//EN" "http://www.w3.org/Graphics/SVG/1.1/DTD/svg11.dtd">
<svg xmlns="http://www.w3.org/2000/svg" xmlns:xlink="http://www.w3.org/1999/xlink" version="1.1" width="350" height="350" viewBox="0 0 350 350" xml:space="preserve">
<desc>Created with Fabric.js 1.7.22</desc>
<defs>
</defs>
<g id="icon" style="stroke: none; stroke-width: 1; stroke-dasharray: none; stroke-linecap: butt; stroke-linejoin: miter; stroke-miterlimit: 10; fill: none; fill-rule: nonzero; opacity: 1;" transform="translate(7.155555555555566 7.155555555555566) scale(3.69 3.69)" >
	<path d="M 81.643 27.915 c -0.047 -0.022 -0.094 -0.042 -0.143 -0.061 c -3.222 -1.233 -6.569 1.377 -10.805 4.686 c -3.429 2.679 -7.599 5.937 -12.708 8.098 c -0.045 -0.135 -0.102 -0.265 -0.151 -0.399 c -0.08 -0.214 -0.152 -0.431 -0.242 -0.64 c -0.16 -0.378 -0.34 -0.746 -0.534 -1.107 c -0.027 -0.05 -0.058 -0.098 -0.086 -0.148 c -0.18 -0.325 -0.372 -0.642 -0.579 -0.952 c -0.041 -0.061 -0.084 -0.12 -0.126 -0.18 c -0.124 -0.179 -0.242 -0.362 -0.375 -0.536 c 7.441 -9.597 9.59 -19.311 6.198 -28.206 c -2.023 -5.057 -7.804 -8.219 -15.462 -8.458 c -7 -0.201 -15.847 2.3 -18.715 8.344 c -0.022 0.047 -0.042 0.094 -0.061 0.142 c -1.235 3.226 1.378 6.57 4.686 10.804 c 2.675 3.423 5.927 7.586 8.089 12.685 c -0.155 0.051 -0.304 0.116 -0.456 0.172 c -0.195 0.073 -0.394 0.139 -0.585 0.221 c -0.382 0.162 -0.754 0.344 -1.118 0.54 c -0.046 0.025 -0.089 0.053 -0.135 0.078 c -0.329 0.182 -0.65 0.377 -0.964 0.586 c -0.06 0.04 -0.118 0.083 -0.178 0.124 c -0.181 0.125 -0.365 0.244 -0.54 0.378 c -9.59 -7.428 -19.296 -9.57 -28.183 -6.182 c -5.057 2.024 -8.219 7.805 -8.458 15.464 c -0.218 7.002 2.3 15.846 8.344 18.713 c 0.047 0.022 0.094 0.043 0.142 0.062 c 3.224 1.232 6.57 -1.379 10.805 -4.687 c 3.42 -2.673 7.579 -5.922 12.672 -8.084 c 0.044 0.134 0.101 0.262 0.149 0.394 c 0.079 0.213 0.152 0.429 0.242 0.637 c 0.162 0.382 0.343 0.754 0.54 1.119 c 0.013 0.024 0.029 0.048 0.042 0.072 c 0.193 0.352 0.402 0.695 0.626 1.03 c 0.031 0.046 0.064 0.089 0.095 0.135 c 0.136 0.198 0.268 0.398 0.414 0.589 c -7.424 9.588 -9.567 19.294 -6.179 28.179 c 2.024 5.058 7.805 8.219 15.463 8.458 c 0.278 0.008 0.559 0.013 0.842 0.013 c 6.854 0 15.119 -2.553 17.873 -8.356 c 0.022 -0.047 0.043 -0.094 0.062 -0.143 c 1.234 -3.226 -1.379 -6.569 -4.687 -10.804 c -2.677 -3.426 -5.932 -7.593 -8.093 -12.696 c 0.142 -0.047 0.279 -0.108 0.42 -0.16 c 0.201 -0.076 0.405 -0.144 0.602 -0.229 c 0.381 -0.162 0.752 -0.343 1.116 -0.538 c 0.027 -0.014 0.052 -0.031 0.078 -0.046 c 0.348 -0.19 0.686 -0.398 1.017 -0.618 c 0.054 -0.036 0.105 -0.075 0.158 -0.111 c 0.191 -0.132 0.385 -0.259 0.569 -0.4 c 9.598 7.439 19.312 9.587 28.203 6.196 c 5.058 -2.023 8.219 -7.805 8.458 -15.464 C 90.204 39.627 87.687 30.783 81.643 27.915 z M 51.142 52.517 c -0.215 0.176 -0.438 0.342 -0.667 0.499 c -0.052 0.036 -0.105 0.07 -0.157 0.104 c -0.184 0.121 -0.372 0.235 -0.564 0.343 c -0.085 0.048 -0.169 0.096 -0.256 0.141 c -0.149 0.078 -0.302 0.149 -0.455 0.22 c -0.128 0.059 -0.255 0.121 -0.386 0.174 c -0.018 0.007 -0.037 0.013 -0.055 0.02 c -0.702 0.279 -1.44 0.478 -2.207 0.589 c -0.008 0.001 -0.015 0.005 -0.023 0.006 c -0.455 0.066 -0.917 0.111 -1.39 0.111 c -3.013 0 -5.709 -1.377 -7.495 -3.535 c -0.01 -0.012 -0.019 -0.025 -0.029 -0.037 c -0.174 -0.212 -0.337 -0.433 -0.493 -0.659 c -0.036 -0.053 -0.071 -0.107 -0.106 -0.161 c -0.12 -0.183 -0.233 -0.37 -0.341 -0.561 c -0.048 -0.086 -0.097 -0.171 -0.143 -0.259 c -0.078 -0.149 -0.149 -0.302 -0.22 -0.455 c -0.058 -0.128 -0.121 -0.254 -0.173 -0.385 c -0.012 -0.03 -0.021 -0.06 -0.033 -0.09 c -0.273 -0.695 -0.469 -1.424 -0.578 -2.182 c -0.001 -0.006 -0.003 -0.011 -0.004 -0.017 c -0.065 -0.454 -0.11 -0.914 -0.11 -1.386 c 0 -3.012 1.377 -5.708 3.534 -7.494 c 0.014 -0.012 0.029 -0.022 0.042 -0.033 c 0.21 -0.172 0.429 -0.334 0.653 -0.488 c 0.057 -0.039 0.115 -0.076 0.172 -0.114 c 0.18 -0.118 0.364 -0.229 0.552 -0.335 c 0.089 -0.05 0.177 -0.1 0.267 -0.146 c 0.148 -0.078 0.3 -0.148 0.452 -0.218 c 0.129 -0.059 0.256 -0.121 0.388 -0.174 c 0.053 -0.021 0.107 -0.038 0.16 -0.059 c 0.677 -0.259 1.387 -0.448 2.122 -0.552 c 0.005 -0.001 0.009 -0.003 0.014 -0.004 c 0.448 -0.064 0.903 -0.108 1.369 -0.108 c 3.011 0 5.706 1.376 7.491 3.531 c 0.016 0.019 0.03 0.039 0.045 0.058 c 0.167 0.205 0.325 0.417 0.475 0.635 c 0.042 0.062 0.083 0.125 0.123 0.187 c 0.114 0.174 0.221 0.351 0.324 0.532 c 0.053 0.094 0.106 0.188 0.156 0.284 c 0.074 0.141 0.14 0.285 0.207 0.43 c 0.062 0.135 0.127 0.269 0.182 0.407 c 0.014 0.034 0.025 0.07 0.038 0.104 c 0.269 0.69 0.462 1.414 0.57 2.164 c 0.001 0.006 0.003 0.011 0.004 0.017 c 0.064 0.451 0.109 0.908 0.109 1.376 c 0 3.013 -1.378 5.711 -3.536 7.496 C 51.16 52.503 51.151 52.51 51.142 52.517 z M 35.694 16.84 c -2.09 -2.674 -4.454 -5.7 -4.121 -6.857 c 1.8 -3.621 8.176 -6.188 14.934 -5.972 c 4.647 0.145 10.208 1.783 11.861 5.916 c 3.474 9.11 -0.713 17.81 -5.376 23.952 c -2.258 -1.631 -5.02 -2.604 -8.012 -2.604 c -0.114 0 -0.224 0.014 -0.337 0.017 C 42.288 25.321 38.664 20.642 35.694 16.84 z M 16.842 54.305 c -2.674 2.089 -5.698 4.457 -6.857 4.121 c -3.621 -1.8 -6.183 -8.189 -5.973 -14.933 c 0.145 -4.648 1.783 -10.208 5.916 -11.863 c 9.101 -3.471 17.792 0.706 23.93 5.36 c -1.63 2.257 -2.602 5.018 -2.602 8.009 c 0 0.123 0.015 0.241 0.018 0.363 C 25.312 47.717 20.639 51.338 16.842 54.305 z M 54.306 73.158 c 2.09 2.674 4.453 5.699 4.121 6.856 c -1.801 3.62 -8.199 6.165 -14.934 5.973 c -4.648 -0.146 -10.208 -1.783 -11.862 -5.916 c -3.471 -9.102 0.709 -17.795 5.363 -23.932 c 2.253 1.62 5.006 2.585 7.986 2.585 c 0.127 0 0.25 -0.016 0.376 -0.019 C 47.711 64.677 51.336 69.357 54.306 73.158 z M 85.989 46.505 c -0.146 4.647 -1.783 10.208 -5.916 11.862 c -9.11 3.474 -17.812 -0.714 -23.955 -5.378 c 1.621 -2.253 2.588 -5.008 2.588 -7.99 c 0 -0.118 -0.015 -0.232 -0.018 -0.35 c 5.98 -2.354 10.665 -5.983 14.471 -8.956 c 2.676 -2.09 5.718 -4.45 6.857 -4.121 C 83.636 33.372 86.199 39.761 85.989 46.505 z" style="stroke: none; stroke-width: 1; stroke-dasharray: none; stroke-linecap: butt; stroke-linejoin: miter; stroke-miterlimit: 10; fill: rgb(0,0,0); fill-rule: nonzero; opacity: 1;" transform=" matrix(1 0 0 1 0 0) " stroke-linecap="round" />
	<circle cx="44.976000000000006" cy="44.996" r="4.886" style="stroke: none; stroke-width: 1; stroke-dasharray: none; stroke-linecap: butt; stroke-linejoin: miter; stroke-miterlimit: 10; fill: rgb(255,255,255); fill-rule: nonzero; opacity: 1;" transform="  matrix(1 0 0 1 0 0) "/>
</g>
</svg>
